<?xml version="1.0" ?><!DOCTYPE svg  PUBLIC '-//W3C//DTD SVG 1.1//EN'  'http://www.w3.org/Graphics/SVG/1.1/DTD/svg11.dtd'><svg height="64px" style="shape-rendering:geometricPrecision; text-rendering:geometricPrecision; image-rendering:optimizeQuality; fill-rule:evenodd; clip-rule:evenodd" version="1.1" viewBox="0 0 7877 7877" width="64px" xml:space="preserve" xmlns="http://www.w3.org/2000/svg" xmlns:xlink="http://www.w3.org/1999/xlink"><defs><style type="text/css">
   <![CDATA[
    .fil6 {fill:none}
    .fil0 {fill:#AEE3D1}
    .fil1 {fill:#C9897B}
    .fil4 {fill:#D3A094}
    .fil2 {fill:#E4EFF7}
    .fil3 {fill:#F5F8FA}
    .fil5 {fill:#396182;fill-rule:nonzero}
   ]]>
  </style><clipPath id="id0"><path d="M3938 0c2176,0 3939,1763 3939,3938 0,2176 -1763,3939 -3939,3939 -2175,0 -3938,-1763 -3938,-3939 0,-2175 1763,-3938 3938,-3938z"/></clipPath></defs><g id="Layer_x0020_1"><path class="fil0" d="M3938 0c2176,0 3939,1763 3939,3938 0,2176 -1763,3939 -3939,3939 -2175,0 -3938,-1763 -3938,-3939 0,-2175 1763,-3938 3938,-3938z"/><g style="clip-path:url(#id0)"><g id="_374977984"><g><rect class="fil1" height="6923" transform="matrix(0.788952 0.884454 -0.884449 0.788957 4405.44 2921.31)" width="609"/><rect class="fil2" height="6923" transform="matrix(0.788952 0.884454 -0.175126 0.156218 4405.44 2921.31)" width="609"/><rect class="fil3" height="6923" transform="matrix(0.326803 0.366362 -0.175126 0.156218 4546.22 3079.13)" width="609"/><rect class="fil4" height="6923" transform="matrix(0.326803 0.366362 0.709323 -0.632739 -1576.92 8541.16)" width="609"/></g><g><path class="fil5" d="M4451 2880l481 539c23,26 20,65 -5,87l-1212 1082 -4911 4380c-26,23 -64,20 -87,-5l-481 -539c-22,-25 -20,-64 5,-87l4911 -4380 1213 -1082c25,-22 64,-20 86,5zm348 575l-398 -447 -1167 1041 -4865 4339 399 447 4865 -4339 1166 -1041z"/><polygon class="fil5" points="3628,4583 3147,4044 3239,3962 3720,4501 "/><path class="fil5" d="M5657 2206c25,-22 64,-20 87,6 22,25 20,64 -5,86l-547 488c-26,23 -64,21 -87,-5 -23,-25 -20,-64 5,-87l547 -488zm-2215 263c-24,-25 -23,-64 1,-87 24,-24 63,-23 87,1l255 263c23,25 23,63 -1,87 -25,24 -64,23 -87,-1l-255 -263zm525 -729c-7,-33 13,-66 46,-73 33,-8 66,12 74,45l169 714c8,33 -13,66 -46,74 -33,7 -66,-13 -74,-46l-169 -714zm799 351c10,-33 45,-51 77,-41 32,10 51,45 40,77l-110 350c-10,32 -44,50 -77,40 -32,-10 -50,-44 -40,-77l110 -349zm555 2300c22,26 18,65 -8,87 -26,21 -65,17 -87,-9l-232 -283c-22,-26 -18,-65 8,-86 27,-22 65,-18 87,8l232 283zm730 -477c32,12 48,47 37,79 -11,31 -47,48 -78,37l-690 -249c-32,-12 -48,-47 -37,-79 12,-31 47,-48 78,-37l690 249zm-322 -838c34,-7 66,15 72,48 7,34 -15,66 -48,72l-360 70c-34,6 -66,-16 -72,-49 -7,-33 15,-65 49,-72l359 -69z"/></g></g></g><path class="fil6" d="M3938 0c2176,0 3939,1763 3939,3938 0,2176 -1763,3939 -3939,3939 -2175,0 -3938,-1763 -3938,-3939 0,-2175 1763,-3938 3938,-3938z"/></g></svg>