<?xml version="1.0" ?><!DOCTYPE svg  PUBLIC '-//W3C//DTD SVG 1.1//EN'  'http://www.w3.org/Graphics/SVG/1.1/DTD/svg11.dtd'><svg enable-background="new 0 0 32 32" height="32px" version="1.1" viewBox="0 0 32 32" width="32px" xml:space="preserve" xmlns="http://www.w3.org/2000/svg" xmlns:xlink="http://www.w3.org/1999/xlink"><g id="web_design_edit_pencil_website"><g><g id="response_time"><g><g><g id="monitoring_6_"><circle cx="7.5" cy="5.5" fill="#000000" r="0.5"/><circle cx="5.5" cy="5.5" fill="#000000" r="0.5"/><circle cx="3.5" cy="5.5" fill="#000000" r="0.5"/></g></g><path d="M3.5,29h-1C1.673,29,1,28.327,1,27.5v-23C1,3.673,1.673,3,2.5,3h18C20.776,3,21,3.224,21,3.5      S20.776,4,20.5,4h-18C2.224,4,2,4.224,2,4.5v23C2,27.776,2.224,28,2.5,28h1C3.776,28,4,28.224,4,28.5S3.776,29,3.5,29z" fill="#000000"/><path d="M29.5,29h-21C8.224,29,8,28.776,8,28.5S8.224,28,8.5,28h21c0.276,0,0.5-0.224,0.5-0.5v-16      c0-0.276,0.224-0.5,0.5-0.5s0.5,0.224,0.5,0.5v16C31,28.327,30.327,29,29.5,29z" fill="#000000"/></g></g></g><g><g><path d="M27.539,11.718c-0.128,0-0.256-0.049-0.354-0.146c-0.195-0.195-0.195-0.512,0-0.707l2.121-2.121     c0.975-0.975,0.975-2.561,0-3.536l-1.414-1.414c-0.975-0.975-2.562-0.975-3.536,0L23.65,4.5c-0.195,0.195-0.512,0.195-0.707,0     s-0.195-0.512,0-0.707l0.707-0.707c1.365-1.365,3.586-1.364,4.95,0L30.014,4.5c1.365,1.365,1.365,3.585,0,4.95l-2.121,2.121     C27.795,11.669,27.667,11.718,27.539,11.718z" fill="#000000"/></g><path d="M5.567,28.033c-0.13,0-0.258-0.051-0.354-0.146c-0.133-0.133-0.18-0.329-0.122-0.507L7.8,19.014    c0.085-0.263,0.368-0.406,0.629-0.322c0.263,0.085,0.407,0.367,0.322,0.629l-2.407,7.435l7.034-2.277l-0.241-1.687l-2.104-0.3    c-0.22-0.032-0.393-0.205-0.424-0.424l-0.354-2.475c-0.039-0.273,0.151-0.527,0.424-0.566c0.272-0.041,0.526,0.151,0.566,0.424    l0.3,2.104l2.104,0.3c0.22,0.032,0.393,0.205,0.424,0.424l0.354,2.475c0.034,0.241-0.11,0.472-0.341,0.546l-8.366,2.708    C5.67,28.025,5.619,28.033,5.567,28.033z" fill="#000000"/><g><path d="M13.579,22.85c-0.128,0-0.256-0.049-0.354-0.146c-0.195-0.195-0.195-0.512,0-0.707L25.771,9.45     c0.195-0.195,0.512-0.195,0.707,0s0.195,0.512,0,0.707L13.933,22.703C13.835,22.801,13.707,22.85,13.579,22.85z" fill="#000000"/></g><g><path d="M10.75,20.021c-0.128,0-0.256-0.049-0.354-0.146c-0.195-0.195-0.195-0.512,0-0.707L21.529,8.036     c0.195-0.195,0.512-0.195,0.707,0s0.195,0.512,0,0.707L11.104,19.875C11.006,19.972,10.878,20.021,10.75,20.021z" fill="#000000"/></g><circle cx="23.296" cy="6.975" fill="#000000" r="0.5"/><g><path d="M9.49,26.539c-0.128,0-0.256-0.049-0.354-0.146l-1.214-1.214c-0.195-0.195-0.195-0.512,0-0.707     s0.512-0.195,0.707,0l1.214,1.214c0.195,0.195,0.195,0.512,0,0.707C9.746,26.49,9.618,26.539,9.49,26.539z" fill="#000000"/></g><g><path d="M8.275,19.667c-0.128,0-0.256-0.049-0.354-0.146c-0.195-0.195-0.195-0.512,0-0.707L21.529,5.208     c0.195-0.195,0.512-0.195,0.707,0s0.195,0.512,0,0.707L8.629,19.521C8.531,19.619,8.403,19.667,8.275,19.667z" fill="#000000"/><path d="M13.933,25.325c-0.128,0-0.256-0.049-0.354-0.146c-0.195-0.195-0.195-0.512,0-0.707L28.246,9.804     L22.943,4.5c-0.195-0.195-0.195-0.512,0-0.707s0.512-0.195,0.707,0l5.657,5.657c0.195,0.195,0.195,0.512,0,0.707L14.286,25.178     C14.188,25.276,14.061,25.325,13.933,25.325z" fill="#000000"/></g></g><path d="M17,8H2C1.724,8,1.5,7.776,1.5,7.5S1.724,7,2,7h15c0.276,0,0.5,0.224,0.5,0.5S17.276,8,17,8z" fill="#000000"/></g></svg>